<?xml version="1.0" encoding="UTF-8"?>
<svg version="1.1" xmlns="http://www.w3.org/2000/svg" width="294" height="66">
<path d="M0 0 C0 20.79 0 41.58 0 63 C-1.32 63 -2.64 63 -4 63 C-4.495 59.535 -4.495 59.535 -5 56 C-5.99 56 -6.98 56 -8 56 C-8 54.68 -8 53.36 -8 52 C-9.485 51.505 -9.485 51.505 -11 51 C-11.33 51.33 -11.66 51.66 -12 52 C-13.485 51.505 -13.485 51.505 -15 51 C-14.505 52.98 -14.505 52.98 -14 55 C-15.32 54.34 -16.64 53.68 -18 53 C-18 52.34 -18 51.68 -18 51 C-19.98491642 51.26676204 -19.98491642 51.26676204 -22 52 C-22.33 52.99 -22.66 53.98 -23 55 C-28.625 55.25 -28.625 55.25 -32 53 C-32 53.66 -32 54.32 -32 55 C-33.19238281 54.9278125 -34.38476562 54.855625 -35.61328125 54.78125 C-37.17968471 54.68745339 -38.74609111 54.59370595 -40.3125 54.5 C-41.09818359 54.45230469 -41.88386719 54.40460937 -42.69335938 54.35546875 C-43.45068359 54.31035156 -44.20800781 54.26523437 -44.98828125 54.21875 C-46.03302612 54.1559082 -46.03302612 54.1559082 -47.09887695 54.09179688 C-50.10696855 53.94654935 -53.11449186 54.00851757 -56.125 54.03515625 C-57.74999899 54.04444954 -59.37499904 54.05355738 -61 54.0625 C-61.81984375 54.07087891 -62.6396875 54.07925781 -63.484375 54.08789062 C-64.27328125 54.09111328 -65.0621875 54.09433594 -65.875 54.09765625 C-66.59429687 54.10289307 -67.31359375 54.10812988 -68.0546875 54.11352539 C-70 54 -70 54 -73 53 C-73.33 53.99 -73.66 54.98 -74 56 C-74.433125 55.525625 -74.86625 55.05125 -75.3125 54.5625 C-77.02309613 52.76313043 -77.02309613 52.76313043 -80 52 C-79.67 49.69 -79.34 47.38 -79 45 C-78.01 45 -77.02 45 -76 45 C-76 45.66 -76 46.32 -76 47 C-74.68 47 -73.36 47 -72 47 C-72.66386719 46.46246094 -73.32773438 45.92492188 -74.01171875 45.37109375 C-76 43 -76 43 -76.20703125 40.16015625 C-76.07683594 39.13792969 -75.94664063 38.11570313 -75.8125 37.0625 C-75.69519531 36.04285156 -75.57789062 35.02320313 -75.45703125 33.97265625 C-75.04525861 31.29437441 -74.56135285 28.65056173 -74 26 C-73.34 26 -72.68 26 -72 26 C-72 24.68 -72 23.36 -72 22 C-71.34 22 -70.68 22 -70 22 C-70.66 21.01 -71.32 20.02 -72 19 C-72 18.01 -72 17.02 -72 16 C-71.01 15.34 -70.02 14.68 -69 14 C-69 12.68 -69 11.36 -69 10 C-65.37673261 8.7922442 -64.35853631 9.45688872 -61 11 C-61 11.66 -61 12.32 -61 13 C-58.56065775 13.13501894 -56.12875896 13.23403897 -53.6875 13.3125 C-52.99720703 13.35439453 -52.30691406 13.39628906 -51.59570312 13.43945312 C-49.30706875 13.54841587 -49.30706875 13.54841587 -46 13 C-43.94636481 10.6230839 -43.94636481 10.6230839 -43 8 C-42.01 8.33 -41.02 8.66 -40 9 C-40.11362262 10.4800841 -40.24122908 11.95910074 -40.375 13.4375 C-40.44460937 14.26121094 -40.51421875 15.08492187 -40.5859375 15.93359375 C-40.72257812 16.61550781 -40.85921875 17.29742188 -41 18 C-41.99 18.495 -41.99 18.495 -43 19 C-40.47211993 21.79872437 -38.79588866 23.45773019 -35 24 C-35 24.66 -35 25.32 -35 26 C-35.99 26.495 -35.99 26.495 -37 27 C-34.22739701 28.93798263 -34.22739701 28.93798263 -32 30 C-31.34 30.66 -30.68 31.32 -30 32 C-26.94729537 32.15811388 -26.94729537 32.15811388 -24 31 C-24 32.32 -24 33.64 -24 35 C-23.01 35.495 -23.01 35.495 -22 36 C-21.67 34.68 -21.34 33.36 -21 32 C-19.68 32.66 -18.36 33.32 -17 34 C-17 34.66 -17 35.32 -17 36 C-15.35 36.33 -13.7 36.66 -12 37 C-12 36.01 -12 35.02 -12 34 C-11.34 34 -10.68 34 -10 34 C-10 35.98 -10 37.96 -10 40 C-9.34 40.33 -8.68 40.66 -8 41 C-9.485 41.495 -9.485 41.495 -11 42 C-10.505 42.433125 -10.01 42.86625 -9.5 43.3125 C-8 45 -8 45 -8 48 C-6.68 47.67 -5.36 47.34 -4 47 C-4.11796454 42.46083081 -4.24219113 37.92189358 -4.37231445 33.38305664 C-4.41571985 31.83785711 -4.45739071 30.29260786 -4.49731445 28.74731445 C-4.55488199 26.53060904 -4.61861424 24.3141552 -4.68359375 22.09765625 C-4.70030624 21.4028566 -4.71701874 20.70805695 -4.73423767 19.99220276 C-4.56502856 16.71237971 -4.56502856 16.71237971 -6 14 C-6.04401732 11.66708189 -6.03954234 9.33299825 -6 7 C-6 5.68 -6 4.36 -6 3 C-6 2.01 -6 1.02 -6 0 C-3 -1 -3 -1 0 0 Z M-49 16 C-49 16.66 -49 17.32 -49 18 C-48.34 17.67 -47.68 17.34 -47 17 C-47.66 16.67 -48.32 16.34 -49 16 Z M-45 16 C-44 18 -44 18 -44 18 Z M-67 22 C-67 22.66 -67 23.32 -67 24 C-66.34 23.67 -65.68 23.34 -65 23 C-65.66 22.67 -66.32 22.34 -67 22 Z M-48 22 C-48.33 22.66 -48.66 23.32 -49 24 C-50.04800781 23.96519531 -51.09601562 23.93039063 -52.17578125 23.89453125 C-53.55467147 23.86639063 -54.93357902 23.83909076 -56.3125 23.8125 C-57.00279297 23.78736328 -57.69308594 23.76222656 -58.40429688 23.73632812 C-62.46113926 23.65082443 -62.46113926 23.65082443 -65.98046875 25.44921875 C-67.09155765 26.8299491 -67.09155765 26.8299491 -67 28 C-59.41 28 -51.82 28 -44 28 C-44.66 27.67 -45.32 27.34 -46 27 C-46.625 24.4375 -46.625 24.4375 -47 22 C-47.33 22 -47.66 22 -48 22 Z M-68 25 C-68 28 -68 28 -68 28 Z M-38 35 C-37.67 35.99 -37.34 36.98 -37 38 C-37 37.01 -37 36.02 -37 35 C-37.33 35 -37.66 35 -38 35 Z M-32 36 C-32 37.32 -32 38.64 -32 40 C-31.34 40 -30.68 40 -30 40 C-30 38.68 -30 37.36 -30 36 C-30.66 36 -31.32 36 -32 36 Z M-22 40 C-21.67 40.66 -21.34 41.32 -21 42 C-20.67 41.34 -20.34 40.68 -20 40 C-20.66 40 -21.32 40 -22 40 Z M-72 47 C-72.33 47.66 -72.66 48.32 -73 49 C-72.01 49 -71.02 49 -70 49 C-70 48.34 -70 47.68 -70 47 C-70.66 47 -71.32 47 -72 47 Z " fill="#606060" transform="translate(88,1)"/>
<path d="M0 0 C0.495 1.485 0.495 1.485 1 3 C-0.375 5.5625 -0.375 5.5625 -2 8 C-3.11785113 10.11785113 -3.11785113 10.11785113 -4 13 C-3.34 13.66 -2.68 14.32 -2 15 C-3.2065625 15.3403125 -3.2065625 15.3403125 -4.4375 15.6875 C-5.283125 16.120625 -6.12875 16.55375 -7 17 C-7.89386164 19.54775306 -7.89386164 19.54775306 -8 22 C-9.65 22.33 -11.3 22.66 -13 23 C-10.525 23.99 -10.525 23.99 -8 25 C-8.33 26.32 -8.66 27.64 -9 29 C-8.01 28.67 -7.02 28.34 -6 28 C-5.01 30.31 -4.02 32.62 -3 35 C-1.02 34.505 -1.02 34.505 1 34 C0.855625 34.70125 0.71125 35.4025 0.5625 36.125 C-0.01478375 39.07556141 -0.51695141 42.03270151 -1 45 C-0.34 45 0.32 45 1 45 C0.67 46.65 0.34 48.3 0 50 C-0.99 49.505 -0.99 49.505 -2 49 C-3.7895469 48.90342128 -5.58285534 48.87019532 -7.375 48.875 C-8.33148438 48.87242188 -9.28796875 48.86984375 -10.2734375 48.8671875 C-12.94133495 48.90127908 -12.94133495 48.90127908 -15.2109375 49.58984375 C-17 50 -17 50 -19.25 48.6875 C-19.8275 48.130625 -20.405 47.57375 -21 47 C-21 46.34 -21 45.68 -21 45 C-20.34 45 -19.68 45 -19 45 C-18.67 44.34 -18.34 43.68 -18 43 C-17.67 42.67 -17.34 42.34 -17 42 C-18.485 41.505 -18.485 41.505 -20 41 C-20.66015625 39.1875 -20.66015625 39.1875 -21.0625 37 C-21.42700873 34.85944703 -21.42700873 34.85944703 -22 33 C-24.00032373 31.99983813 -25.83125748 31.50603992 -28 31 C-28.33 31.66 -28.66 32.32 -29 33 C-29.99 33 -30.98 33 -32 33 C-32 37.95 -32 42.9 -32 48 C-34.80157448 48.93385816 -36.65447803 49.16354595 -39.5625 49.1875 C-40.34753906 49.20167969 -41.13257812 49.21585938 -41.94140625 49.23046875 C-44 49 -44 49 -46 47 C-46.90177694 44.26781439 -47.12611858 41.77031372 -47.12939453 38.90576172 C-47.13254669 38.11168915 -47.13569885 37.31761658 -47.13894653 36.4994812 C-47.1369223 35.65144928 -47.13489807 34.80341736 -47.1328125 33.9296875 C-47.13376923 33.05224884 -47.13472595 32.17481018 -47.13571167 31.27078247 C-47.13639109 29.41994149 -47.13455341 27.5690981 -47.13037109 25.71826172 C-47.12500666 22.8785267 -47.13033071 20.03894893 -47.13671875 17.19921875 C-47.13605818 15.40104132 -47.13477745 13.60286398 -47.1328125 11.8046875 C-47.13483673 10.95260712 -47.13686096 10.10052673 -47.13894653 9.22262573 C-47.1149675 3.22993499 -47.1149675 3.22993499 -46 1 C-43.03 1 -40.06 1 -37 1 C-37 1.66 -37 2.32 -37 3 C-35.35 3.33 -33.7 3.66 -32 4 C-31.1276588 6.99480917 -30.89170234 9.63575911 -30.9375 12.75 C-30.94652344 13.54921875 -30.95554687 14.3484375 -30.96484375 15.171875 C-30.97644531 15.77515625 -30.98804687 16.3784375 -31 17 C-30.34 16.67 -29.68 16.34 -29 16 C-29 14.35 -29 12.7 -29 11 C-28.01 10.67 -27.02 10.34 -26 10 C-25.01 11.32 -24.02 12.64 -23 14 C-22.566875 12.88625 -22.566875 12.88625 -22.125 11.75 C-19.5 5.33333333 -19.5 5.33333333 -16 3 C-13.24582682 2.69933846 -10.57354853 2.49074701 -7.8125 2.375 C-7.06291016 2.33632812 -6.31332031 2.29765625 -5.54101562 2.2578125 C-3.69440801 2.16371784 -1.8472381 2.08077681 0 2 C0 1.34 0 0.68 0 0 Z M-26 16 C-26.33 16.66 -26.66 17.32 -27 18 C-26.34 18 -25.68 18 -25 18 C-25.33 17.34 -25.66 16.68 -26 16 Z M-9 18 C-8 20 -8 20 -8 20 Z " fill="#EEEEEE" transform="translate(151,7)"/>
<path d="M0 0 C3 1 3 1 5 3 C5.22705078 5.33837891 5.22705078 5.33837891 5.1953125 8.2265625 C5.18886719 9.2578125 5.18242187 10.2890625 5.17578125 11.3515625 C5.15902344 12.43179687 5.14226562 13.51203125 5.125 14.625 C5.11597656 15.71296875 5.10695312 16.8009375 5.09765625 17.921875 C5.07403409 20.61480152 5.04109556 23.30729255 5 26 C6.65 26.33 8.3 26.66 10 27 C9.34 27.99 8.68 28.98 8 30 C8.85799264 32.19324231 8.85799264 32.19324231 11.1875 33.1875 C14.49268642 34.36158124 14.49268642 34.36158124 20 33 C20 22.44 20 11.88 20 1 C20.99 0.67 21.98 0.34 23 0 C23.495 0.99 23.495 0.99 24 2 C24.99 1.67 25.98 1.34 27 1 C28.56118428 0.93259135 30.1250252 0.91485544 31.6875 0.9375 C32.89986328 0.95103516 32.89986328 0.95103516 34.13671875 0.96484375 C35.05904297 0.98224609 35.05904297 0.98224609 36 1 C36.495 3.475 36.495 3.475 37 6 C37.99 6 38.98 6 40 6 C39.67 7.32 39.34 8.64 39 10 C38.67 10 38.34 10 38 10 C37.67 18.91 37.34 27.82 37 37 C36.01 36.505 36.01 36.505 35 36 C34.34 36.99 33.68 37.98 33 39 C34.32 39 35.64 39 37 39 C37.33 39.66 37.66 40.32 38 41 C38.99 41.495 38.99 41.495 40 42 C41.03145371 43.30915279 42.03542166 44.64082143 43 46 C42.34 46.99 41.68 47.98 41 49 C39.35 48.34 37.7 47.68 36 47 C36 46.01 36 45.02 36 44 C35.01 44 34.02 44 33 44 C33.66 45.65 34.32 47.3 35 49 C33.68 49 32.36 49 31 49 C30.34 47.02 29.68 45.04 29 43 C26.00007271 44.29144978 26.00007271 44.29144978 23 46 C22.67 46.99 22.34 47.98 22 49 C20.02 49 18.04 49 16 49 C16 48.67 16 48.34 16 48 C9.31468008 46.82712428 9.31468008 46.82712428 3 49 C3 48.01 3 47.02 3 46 C0.66924071 46.95865509 0.66924071 46.95865509 -1 50 C-1.99 47.03 -2.98 44.06 -4 41 C-4.66 41 -5.32 41 -6 41 C-12.36028115 33.73110726 -11.56797127 26.09670123 -11 17 C-10.75823417 13.97012822 -10.43004073 11.01028508 -10 8 C-10.66 8 -11.32 8 -12 8 C-11.25 6.0625 -11.25 6.0625 -10 4 C-7.875 3.25 -7.875 3.25 -6 3 C-6 2.34 -6 1.68 -6 1 C-3 2 -3 2 0 3 C0 2.01 0 1.02 0 0 Z M28 2 C32 3 32 3 32 3 Z " fill="#F4F4F4" transform="translate(164,7)"/>
<path d="M0 0 C1.25361328 0.00322266 2.50722656 0.00644531 3.79882812 0.00976562 C5.76432617 0.02233398 5.76432617 0.02233398 7.76953125 0.03515625 C9.10481606 0.04017308 10.44010266 0.04473566 11.77539062 0.04882812 C15.04431598 0.0606293 18.31315116 0.07709328 21.58203125 0.09765625 C22.96279876 4.10524975 23.98184285 7.89633743 24.58203125 12.09765625 C21.61203125 12.75765625 18.64203125 13.41765625 15.58203125 14.09765625 C15.59363281 15.08507813 15.60523438 16.0725 15.6171875 17.08984375 C15.62621094 18.37117188 15.63523437 19.6525 15.64453125 20.97265625 C15.65613281 22.24882812 15.66773438 23.525 15.6796875 24.83984375 C15.58203125 28.09765625 15.58203125 28.09765625 14.58203125 30.09765625 C15.94328125 30.19046875 15.94328125 30.19046875 17.33203125 30.28515625 C21.31987301 31.28211669 22.34795236 32.74653791 24.58203125 36.09765625 C23.92203125 36.09765625 23.26203125 36.09765625 22.58203125 36.09765625 C23.24203125 37.74765625 23.90203125 39.39765625 24.58203125 41.09765625 C23.77765625 41.38640625 22.97328125 41.67515625 22.14453125 41.97265625 C19.44938445 42.83028193 19.44938445 42.83028193 18.58203125 45.09765625 C17.41285156 45.15824219 16.24367188 45.21882813 15.0390625 45.28125 C13.49087511 45.36569659 11.94269857 45.4503425 10.39453125 45.53515625 C9.62560547 45.57447266 8.85667969 45.61378906 8.06445312 45.65429688 C4.1495205 45.87272659 0.41082437 46.18457733 -3.41796875 47.09765625 C-3.41796875 46.10765625 -3.41796875 45.11765625 -3.41796875 44.09765625 C-4.05734375 43.95328125 -4.69671875 43.80890625 -5.35546875 43.66015625 C-7.41796875 43.09765625 -7.41796875 43.09765625 -8.41796875 42.09765625 C-8.65677472 34.57526819 -8.65677472 34.57526819 -7.41796875 32.09765625 C-7.19329044 30.5609676 -7.0100007 29.01797571 -6.85546875 27.47265625 C-6.77167969 26.65539062 -6.68789062 25.838125 -6.6015625 24.99609375 C-6.54097656 24.36960937 -6.48039063 23.743125 -6.41796875 23.09765625 C-5.42796875 22.76765625 -4.43796875 22.43765625 -3.41796875 22.09765625 C-2.75796875 24.40765625 -2.09796875 26.71765625 -1.41796875 29.09765625 C-1.41796875 24.14765625 -1.41796875 19.19765625 -1.41796875 14.09765625 C-3.06796875 14.42765625 -4.71796875 14.75765625 -6.41796875 15.09765625 C-8.43588415 13.5842197 -9.29266809 12.34825758 -10.41796875 10.09765625 C-10.65130208 3.56432292 -10.65130208 3.56432292 -9.41796875 1.09765625 C-6.06061738 -0.02146087 -3.53591489 -0.01599961 0 0 Z " fill="#FAFAFA" transform="translate(255.41796875,8.90234375)"/>
<path d="M0 0 C1.30324219 -0.02126953 1.30324219 -0.02126953 2.6328125 -0.04296875 C4.875 0.1875 4.875 0.1875 6.875 2.1875 C7 4.8125 7 4.8125 6.875 7.1875 C6.215 7.1875 5.555 7.1875 4.875 7.1875 C4.875 15.7675 4.875 24.3475 4.875 33.1875 C5.865 32.6925 5.865 32.6925 6.875 32.1875 C8.6154417 32.10300372 10.35909722 32.08026976 12.1015625 32.08984375 C13.1328125 32.09306641 14.1640625 32.09628906 15.2265625 32.09960938 C16.84691406 32.11217773 16.84691406 32.11217773 18.5 32.125 C20.13195312 32.13176758 20.13195312 32.13176758 21.796875 32.13867188 C24.48963789 32.15048224 27.18229188 32.16695222 29.875 32.1875 C29.73379286 34.12534265 29.58687127 36.06276955 29.4375 38 C29.35628906 39.07894531 29.27507812 40.15789063 29.19140625 41.26953125 C28.875 44.1875 28.875 44.1875 27.875 47.1875 C26.885 47.5175 25.895 47.8475 24.875 48.1875 C23.885 47.5275 22.895 46.8675 21.875 46.1875 C19.35997823 45.82053819 19.35997823 45.82053819 16.55078125 45.7734375 C15.52275391 45.73476563 14.49472656 45.69609375 13.43554688 45.65625 C12.36369141 45.6253125 11.29183594 45.594375 10.1875 45.5625 C9.10404297 45.52382813 8.02058594 45.48515625 6.90429688 45.4453125 C4.22803533 45.35099491 1.55178157 45.26539995 -1.125 45.1875 C-1.125 45.8475 -1.125 46.5075 -1.125 47.1875 C-3.4375 47.8125 -3.4375 47.8125 -6.125 48.1875 C-9.58791414 45.87889058 -10.00827563 45.0999813 -11.125 41.1875 C-11.31397234 38.32759972 -11.40557172 35.56892076 -11.390625 32.7109375 C-11.39253845 31.9038736 -11.3944519 31.09680969 -11.39642334 30.26528931 C-11.39777998 28.56585375 -11.39412004 26.86640764 -11.38574219 25.16699219 C-11.37500708 22.56421754 -11.38566927 19.96212869 -11.3984375 17.359375 C-11.39711636 15.70572764 -11.39455491 14.05208071 -11.390625 12.3984375 C-11.39467346 11.62027679 -11.39872192 10.84211609 -11.40289307 10.04037476 C-11.36969177 6.22535495 -11.29213117 4.43819676 -9.125 1.1875 C-6.12902443 0.06563036 -3.17743881 0.02371223 0 0 Z " fill="#FAFAFA" transform="translate(217.125,7.8125)"/>
<path d="M0 0 C1.32 0 2.64 0 4 0 C4.66 0.66 5.32 1.32 6 2 C6.66 1.34 7.32 0.68 8 0 C8.99 0.33 9.98 0.66 11 1 C10.34 1.66 9.68 2.32 9 3 C10.2375 3.0825 11.475 3.165 12.75 3.25 C16.78745032 3.73335673 18.30092109 4.91533839 21 8 C23.1381966 8.7872678 23.1381966 8.7872678 25 9 C25 9.66 25 10.32 25 11 C24.34 11.33 23.68 11.66 23 12 C25.77260299 13.93798263 25.77260299 13.93798263 28 15 C28.66 15.66 29.32 16.32 30 17 C30.70125 17.598125 31.4025 18.19625 32.125 18.8125 C34 21 34 21 34 26 C38.29 26.99 42.58 27.98 47 29 C47 29.66 47 30.32 47 31 C27.86 31 8.72 31 -11 31 C-12.59273144 27.81453711 -12.10141833 24.36800652 -12.0625 20.875 C-12.041875 18.27625 -12.02125 15.6775 -12 13 C1.86 13.495 1.86 13.495 16 14 C15.34 11.69 14.68 9.38 14 7 C6.74 7 -0.52 7 -8 7 C-8 6.01 -8 5.02 -8 4 C-2.555 3.505 -2.555 3.505 3 3 C2.01 2.01 1.02 1.02 0 0 Z M22 20 C22.33 20.99 22.66 21.98 23 23 C23 22.01 23 21.02 23 20 C22.67 20 22.34 20 22 20 Z M28 21 C28 22.32 28 23.64 28 25 C28.66 25 29.32 25 30 25 C30 23.68 30 22.36 30 21 C29.34 21 28.68 21 28 21 Z " fill="#F2F2F2" transform="translate(28,16)"/>
<path d="M0 0 C0.99 0.33 1.98 0.66 3 1 C2.67 3.97 2.34 6.94 2 10 C-0.75078884 10.91692961 -2.35948913 11.10886083 -5.1875 11.0625 C-7.0746875 11.0315625 -7.0746875 11.0315625 -9 11 C-8.34 10.01 -7.68 9.02 -7 8 C-8.65 8.66 -10.3 9.32 -12 10 C-12.33 9.01 -12.66 8.02 -13 7 C-13.99 7.33 -14.98 7.66 -16 8 C-15.01 8.99 -14.02 9.98 -13 11 C-16.96 11 -20.92 11 -25 11 C-24.67 11.66 -24.34 12.32 -24 13 C-17.07 13 -10.14 13 -3 13 C-2.34 14.98 -1.68 16.96 -1 19 C-1.66 19 -2.32 19 -3 19 C-3.33 17.68 -3.66 16.36 -4 15 C-4.66 15.66 -5.32 16.32 -6 17 C-8.58064129 17.14497985 -11.04943884 17.18677545 -13.625 17.125 C-14.68460938 17.11146484 -14.68460938 17.11146484 -15.765625 17.09765625 C-17.51056098 17.07407603 -19.25532295 17.03820461 -21 17 C-21.33 17.66 -21.66 18.32 -22 19 C-21.07058594 18.98839844 -20.14117187 18.97679688 -19.18359375 18.96484375 C-6.90509666 18.87521968 -6.90509666 18.87521968 -1 20 C-1 20.33 -1 20.66 -1 21 C-5.29165262 21.02891949 -9.58328036 21.04677118 -13.875 21.0625 C-15.09832031 21.07087891 -16.32164063 21.07925781 -17.58203125 21.08789062 C-19.33193359 21.09272461 -19.33193359 21.09272461 -21.1171875 21.09765625 C-22.73536377 21.10551147 -22.73536377 21.10551147 -24.38623047 21.11352539 C-27 21 -27 21 -29 20 C-28.67 25.94 -28.34 31.88 -28 38 C-8.86 38 10.28 38 30 38 C30.495 37.01 30.495 37.01 31 36 C31 36.99 31 37.98 31 39 C23.24614942 39.09272074 15.49242894 39.16377508 7.73816299 39.20724869 C4.13741714 39.22811513 0.53705084 39.25641421 -3.06347656 39.30175781 C-6.53887913 39.34525125 -10.01391688 39.36914421 -13.48957062 39.37950897 C-15.45945784 39.39048615 -17.42919847 39.421707 -19.39886475 39.45318604 C-21.20027924 39.45363922 -21.20027924 39.45363922 -23.03808594 39.45410156 C-24.6236026 39.46742523 -24.6236026 39.46742523 -26.2411499 39.48101807 C-29.70464074 38.87714268 -30.89024783 37.76414823 -33 35 C-33.20703125 32.16015625 -33.20703125 32.16015625 -32.8125 29.0625 C-32.63654297 27.53302734 -32.63654297 27.53302734 -32.45703125 25.97265625 C-32.04525861 23.29437441 -31.56135285 20.65056173 -31 18 C-30.34 18 -29.68 18 -29 18 C-29 16.68 -29 15.36 -29 14 C-28.34 14 -27.68 14 -27 14 C-27.66 13.01 -28.32 12.02 -29 11 C-29 10.01 -29 9.02 -29 8 C-28.01 7.34 -27.02 6.68 -26 6 C-26 4.68 -26 3.36 -26 2 C-22.37673261 0.7922442 -21.35853631 1.45688872 -18 3 C-18 3.66 -18 4.32 -18 5 C-15.56065775 5.13501894 -13.12875896 5.23403897 -10.6875 5.3125 C-9.99720703 5.35439453 -9.30691406 5.39628906 -8.59570312 5.43945312 C-6.30706875 5.54841587 -6.30706875 5.54841587 -3 5 C-0.94636481 2.6230839 -0.94636481 2.6230839 0 0 Z M-6 8 C-6 8.66 -6 9.32 -6 10 C-5.34 9.67 -4.68 9.34 -4 9 C-4.66 8.67 -5.32 8.34 -6 8 Z M-2 8 C-1 10 -1 10 -1 10 Z M-24 14 C-24 14.66 -24 15.32 -24 16 C-23.34 15.67 -22.68 15.34 -22 15 C-22.66 14.67 -23.32 14.34 -24 14 Z M-25 17 C-25 20 -25 20 -25 20 Z " fill="#E1E1E1" transform="translate(45,9)"/>
<path d="M0 0 C0.99 0 1.98 0 3 0 C3 0.66 3 1.32 3 2 C4.32 2.33 5.64 2.66 7 3 C6.67 3.33 6.34 3.66 6 4 C7.32 4.33 8.64 4.66 10 5 C10 4.34 10 3.68 10 3 C12.33294775 2.95758277 14.66702567 2.95907063 17 3 C17.33 3.33 17.66 3.66 18 4 C19.68183948 4.23287008 21.3712416 4.41264166 23.0625 4.5625 C23.98160156 4.64628906 24.90070312 4.73007812 25.84765625 4.81640625 C26.91306641 4.90728516 26.91306641 4.90728516 28 5 C28 4.34 28 3.68 28 3 C40.87 3 53.74 3 67 3 C66.67 4.32 66.34 5.64 66 7 C65.01 6.505 65.01 6.505 64 6 C64.495 7.98 64.495 7.98 65 10 C63.68 9.34 62.36 8.68 61 8 C61 7.34 61 6.68 61 6 C59.01508358 6.26676204 59.01508358 6.26676204 57 7 C56.67 7.99 56.34 8.98 56 10 C50.375 10.25 50.375 10.25 47 8 C47 8.66 47 9.32 47 10 C45.80761719 9.9278125 44.61523438 9.855625 43.38671875 9.78125 C41.82031529 9.68745339 40.25390889 9.59370595 38.6875 9.5 C37.90181641 9.45230469 37.11613281 9.40460937 36.30664062 9.35546875 C35.54931641 9.31035156 34.79199219 9.26523437 34.01171875 9.21875 C32.96697388 9.1559082 32.96697388 9.1559082 31.90112305 9.09179688 C28.89303145 8.94654935 25.88550814 9.00851757 22.875 9.03515625 C21.25000101 9.04444954 19.62500096 9.05355738 18 9.0625 C16.77023438 9.07506836 16.77023438 9.07506836 15.515625 9.08789062 C14.72671875 9.09111328 13.9378125 9.09433594 13.125 9.09765625 C12.40570313 9.10289307 11.68640625 9.10812988 10.9453125 9.11352539 C9 9 9 9 6 8 C5.67 8.99 5.34 9.98 5 11 C4.566875 10.525625 4.13375 10.05125 3.6875 9.5625 C1.97690387 7.76313043 1.97690387 7.76313043 -1 7 C-0.67 4.69 -0.34 2.38 0 0 Z " fill="#D3D3D3" transform="translate(9,46)"/>
<path d="M0 0 C1.30324219 -0.02126953 1.30324219 -0.02126953 2.6328125 -0.04296875 C4.875 0.1875 4.875 0.1875 6.875 2.1875 C7 4.8125 7 4.8125 6.875 7.1875 C6.215 7.1875 5.555 7.1875 4.875 7.1875 C4.875 15.7675 4.875 24.3475 4.875 33.1875 C5.865 32.6925 5.865 32.6925 6.875 32.1875 C8.6154417 32.10300372 10.35909722 32.08026976 12.1015625 32.08984375 C13.1328125 32.09306641 14.1640625 32.09628906 15.2265625 32.09960938 C16.84691406 32.11217773 16.84691406 32.11217773 18.5 32.125 C20.13195312 32.13176758 20.13195312 32.13176758 21.796875 32.13867188 C24.48963789 32.15048224 27.18229188 32.16695222 29.875 32.1875 C29.73379286 34.12534265 29.58687127 36.06276955 29.4375 38 C29.35628906 39.07894531 29.27507812 40.15789063 29.19140625 41.26953125 C28.875 44.1875 28.875 44.1875 27.875 47.1875 C26.885 47.5175 25.895 47.8475 24.875 48.1875 C23.885 47.5275 22.895 46.8675 21.875 46.1875 C19.35997823 45.82053819 19.35997823 45.82053819 16.55078125 45.7734375 C15.52275391 45.73476563 14.49472656 45.69609375 13.43554688 45.65625 C12.36369141 45.6253125 11.29183594 45.594375 10.1875 45.5625 C9.10404297 45.52382813 8.02058594 45.48515625 6.90429688 45.4453125 C4.22803533 45.35099491 1.55178157 45.26539995 -1.125 45.1875 C-1.125 45.8475 -1.125 46.5075 -1.125 47.1875 C-3.4375 47.8125 -3.4375 47.8125 -6.125 48.1875 C-9.58791414 45.87889058 -10.00827563 45.0999813 -11.125 41.1875 C-11.31397234 38.32759972 -11.40557172 35.56892076 -11.390625 32.7109375 C-11.39253845 31.9038736 -11.3944519 31.09680969 -11.39642334 30.26528931 C-11.39777998 28.56585375 -11.39412004 26.86640764 -11.38574219 25.16699219 C-11.37500708 22.56421754 -11.38566927 19.96212869 -11.3984375 17.359375 C-11.39711636 15.70572764 -11.39455491 14.05208071 -11.390625 12.3984375 C-11.39467346 11.62027679 -11.39872192 10.84211609 -11.40289307 10.04037476 C-11.36969177 6.22535495 -11.29213117 4.43819676 -9.125 1.1875 C-6.12902443 0.06563036 -3.17743881 0.02371223 0 0 Z M-9.125 3.1875 C-9.24486512 16.57243832 -8.94101928 29.82518437 -8.125 43.1875 C3.755 43.1875 15.635 43.1875 27.875 43.1875 C27.875 40.2175 27.875 37.2475 27.875 34.1875 C19.955 34.1875 12.035 34.1875 3.875 34.1875 C3.875 23.9575 3.875 13.7275 3.875 3.1875 C-0.415 3.1875 -4.705 3.1875 -9.125 3.1875 Z " fill="#A6A6A6" transform="translate(217.125,7.8125)"/>
<path d="M0 0 C0 20.79 0 41.58 0 63 C-1.32 63 -2.64 63 -4 63 C-5.29891729 58.06769401 -5.1085398 53.1984094 -5.0625 48.140625 C-5.05871338 47.19564148 -5.05492676 46.25065796 -5.05102539 45.27703857 C-5.03883465 42.26797883 -5.02019151 39.25901606 -5 36.25 C-4.97351957 32.2760445 -4.95348891 28.30213495 -4.9375 24.328125 C-4.92920166 23.40839905 -4.92090332 22.4886731 -4.91235352 21.54107666 C-4.90382624 19.36053872 -4.94653179 17.17989898 -5 15 C-5.33 14.67 -5.66 14.34 -6 14 C-6.04401732 11.66708189 -6.03954234 9.33299825 -6 7 C-6 5.68 -6 4.36 -6 3 C-6 2.01 -6 1.02 -6 0 C-3 -1 -3 -1 0 0 Z " fill="#A1A1A1" transform="translate(88,1)"/>
<path d="M0 0 C0.33 0 0.66 0 1 0 C1 6.93 1 13.86 1 21 C-1.31 21 -3.62 21 -6 21 C-6 23.97 -6 26.94 -6 30 C2.91 30 11.82 30 21 30 C21 27.03 21 24.06 21 21 C22.32 21.99 23.64 22.98 25 24 C24.34 24 23.68 24 23 24 C23.66 25.65 24.32 27.3 25 29 C24.195625 29.28875 23.39125 29.5775 22.5625 29.875 C19.8673532 30.73262568 19.8673532 30.73262568 19 33 C17.83082031 33.06058594 16.66164063 33.12117188 15.45703125 33.18359375 C13.90884386 33.26804034 12.36066732 33.35268625 10.8125 33.4375 C10.04357422 33.47681641 9.27464844 33.51613281 8.48242188 33.55664062 C4.56748925 33.77507034 0.82879312 34.08692108 -3 35 C-3 34.01 -3 33.02 -3 32 C-3.639375 31.855625 -4.27875 31.71125 -4.9375 31.5625 C-7 31 -7 31 -8 30 C-8.23880597 22.47761194 -8.23880597 22.47761194 -7 20 C-6.77532169 18.46331135 -6.59203195 16.92031946 -6.4375 15.375 C-6.35371094 14.55773438 -6.26992187 13.74046875 -6.18359375 12.8984375 C-6.12300781 12.27195312 -6.06242188 11.64546875 -6 11 C-5.01 10.67 -4.02 10.34 -3 10 C-2.34 12.31 -1.68 14.62 -1 17 C-1.01160156 16.02417969 -1.02320313 15.04835938 -1.03515625 14.04296875 C-1.04417969 12.77066406 -1.05320313 11.49835937 -1.0625 10.1875 C-1.07410156 8.92292969 -1.08570313 7.65835937 -1.09765625 6.35546875 C-1 3 -1 3 0 0 Z " fill="#636363" transform="translate(255,21)"/>
<path d="M0 0 C0.99 0.33 1.98 0.66 3 1 C2.67 3.97 2.34 6.94 2 10 C-0.75078884 10.91692961 -2.35948913 11.10886083 -5.1875 11.0625 C-7.0746875 11.0315625 -7.0746875 11.0315625 -9 11 C-8.34 10.01 -7.68 9.02 -7 8 C-8.65 8.66 -10.3 9.32 -12 10 C-12.33 9.01 -12.66 8.02 -13 7 C-13.99 7.33 -14.98 7.66 -16 8 C-15.01 8.99 -14.02 9.98 -13 11 C-13.84304687 11.04898437 -14.68609375 11.09796875 -15.5546875 11.1484375 C-16.65039062 11.22320312 -17.74609375 11.29796875 -18.875 11.375 C-20.51082031 11.47941406 -20.51082031 11.47941406 -22.1796875 11.5859375 C-25.13046474 11.73253491 -25.13046474 11.73253491 -27 14 C-29 11 -29 11 -29 8 C-28.01 7.34 -27.02 6.68 -26 6 C-26 4.68 -26 3.36 -26 2 C-22.37673261 0.7922442 -21.35853631 1.45688872 -18 3 C-18 3.66 -18 4.32 -18 5 C-15.56065775 5.13501894 -13.12875896 5.23403897 -10.6875 5.3125 C-9.99720703 5.35439453 -9.30691406 5.39628906 -8.59570312 5.43945312 C-6.30706875 5.54841587 -6.30706875 5.54841587 -3 5 C-0.94636481 2.6230839 -0.94636481 2.6230839 0 0 Z M-6 8 C-6 8.66 -6 9.32 -6 10 C-5.34 9.67 -4.68 9.34 -4 9 C-4.66 8.67 -5.32 8.34 -6 8 Z M-2 8 C-1 10 -1 10 -1 10 Z " fill="#727272" transform="translate(45,9)"/>
<path d="M0 0 C2.97 0 5.94 0 9 0 C9 0.66 9 1.32 9 2 C10.32 2.33 11.64 2.66 13 3 C9.04 3 5.08 3 1 3 C1 16.53 1 30.06 1 44 C5.29 44 9.58 44 14 44 C14 44.99 14 45.98 14 47 C11.19842552 47.93385816 9.34552197 48.16354595 6.4375 48.1875 C5.65246094 48.20167969 4.86742188 48.21585938 4.05859375 48.23046875 C2 48 2 48 0 46 C-0.90177694 43.26781439 -1.12611858 40.77031372 -1.12939453 37.90576172 C-1.13254669 37.11168915 -1.13569885 36.31761658 -1.13894653 35.4994812 C-1.1369223 34.65144928 -1.13489807 33.80341736 -1.1328125 32.9296875 C-1.13376923 32.05224884 -1.13472595 31.17481018 -1.13571167 30.27078247 C-1.13639109 28.41994149 -1.13455341 26.5690981 -1.13037109 24.71826172 C-1.12500666 21.8785267 -1.13033071 19.03894893 -1.13671875 16.19921875 C-1.13605818 14.40104132 -1.13477745 12.60286398 -1.1328125 10.8046875 C-1.13483673 9.95260712 -1.13686096 9.10052673 -1.13894653 8.22262573 C-1.1149675 2.22993499 -1.1149675 2.22993499 0 0 Z " fill="#7C7C7C" transform="translate(105,8)"/>
<path d="M0 0 C0.66 0 1.32 0 2 0 C2.33 0.66 2.66 1.32 3 2 C3.99 1.67 4.98 1.34 6 1 C7.56118428 0.93259135 9.1250252 0.91485544 10.6875 0.9375 C11.89986328 0.95103516 11.89986328 0.95103516 13.13671875 0.96484375 C14.05904297 0.98224609 14.05904297 0.98224609 15 1 C15.33 2.65 15.66 4.3 16 6 C16.99 6 17.98 6 19 6 C18.67 7.32 18.34 8.64 18 10 C17.67 10 17.34 10 17 10 C16.67 18.91 16.34 27.82 16 37 C15.34 36.67 14.68 36.34 14 36 C14 25.33333333 14 14.66666667 14 4 C9.71 4 5.42 4 1 4 C1 12.58 1 21.16 1 30 C0.34 29.67 -0.32 29.34 -1 29 C-1.02465881 25.03069011 -1.04284023 21.06140966 -1.05493164 17.09204102 C-1.05997057 15.74079614 -1.06680177 14.38955674 -1.07543945 13.03833008 C-1.08752419 11.09979566 -1.09269828 9.161222 -1.09765625 7.22265625 C-1.10289307 6.05484619 -1.10812988 4.88703613 -1.11352539 3.68383789 C-1 1 -1 1 0 0 Z M7 2 C11 3 11 3 11 3 Z " fill="#353535" transform="translate(185,7)"/>
<path d="M0 0 C12.87 0 25.74 0 39 0 C39 0.66 39 1.32 39 2 C22.6249125 3.57067166 6.44894922 4.28900708 -10 4 C-10 3.67 -10 3.34 -10 3 C-6.7 3 -3.4 3 0 3 C0 2.01 0 1.02 0 0 Z " fill="#EAEAEA" transform="translate(37,49)"/>
<path d="M0 0 C1.30324219 -0.02126953 1.30324219 -0.02126953 2.6328125 -0.04296875 C4.875 0.1875 4.875 0.1875 6.875 2.1875 C7 4.8125 7 4.8125 6.875 7.1875 C6.215 7.1875 5.555 7.1875 4.875 7.1875 C4.875 15.7675 4.875 24.3475 4.875 33.1875 C5.865 32.6925 5.865 32.6925 6.875 32.1875 C8.39648326 32.10377341 9.92155778 32.08019973 11.4453125 32.08984375 C12.34121094 32.09306641 13.23710937 32.09628906 14.16015625 32.09960938 C15.09730469 32.10798828 16.03445312 32.11636719 17 32.125 C17.94488281 32.12951172 18.88976562 32.13402344 19.86328125 32.13867188 C22.20058387 32.15047643 24.53776061 32.16694241 26.875 32.1875 C27.205 32.8475 27.535 33.5075 27.875 34.1875 C19.955 34.1875 12.035 34.1875 3.875 34.1875 C3.875 23.9575 3.875 13.7275 3.875 3.1875 C-0.745 3.5175 -5.365 3.8475 -10.125 4.1875 C-9.795 3.1975 -9.465 2.2075 -9.125 1.1875 C-6.1508439 0.03384752 -3.16413847 0.02361297 0 0 Z " fill="#666666" transform="translate(217.125,7.8125)"/>
<path d="M0 0 C0.66 0 1.32 0 2 0 C2 1.32 2 2.64 2 4 C2.66 4.33 3.32 4.66 4 5 C4.33 3.68 4.66 2.36 5 1 C6.32 1.66 7.64 2.32 9 3 C9 3.66 9 4.32 9 5 C9.66 5.33 10.32 5.66 11 6 C12 7 12 7 12.0625 10.0625 C12.041875 11.031875 12.02125 12.00125 12 13 C7.28596212 12.52060632 3.33420699 12.03165952 -1 10 C-0.979375 9.21625 -0.95875 8.4325 -0.9375 7.625 C-0.81315937 5.01885039 -0.81315937 5.01885039 -2 3 C-1.34 2.01 -0.68 1.02 0 0 Z M4 9 C4.33 9.66 4.66 10.32 5 11 C5.33 10.34 5.66 9.68 6 9 C5.34 9 4.68 9 4 9 Z " fill="#B1B1B1" transform="translate(62,32)"/>
<path d="M0 0 C9.24 0 18.48 0 28 0 C29.40620186 4.21860559 30.38379922 7.68659457 31 12 C28.03 12.66 25.06 13.32 22 14 C22.01160156 14.98742188 22.02320313 15.97484375 22.03515625 16.9921875 C22.04417969 18.27351563 22.05320312 19.55484375 22.0625 20.875 C22.07410156 22.15117187 22.08570313 23.42734375 22.09765625 24.7421875 C22 28 22 28 21 30 C22.98 30.33 24.96 30.66 27 31 C27 31.66 27 32.32 27 33 C24.69 33 22.38 33 20 33 C20 25.74 20 18.48 20 11 C22.31 11 24.62 11 27 11 C27 8.03 27 5.06 27 2 C18.09 2 9.18 2 0 2 C0 1.34 0 0.68 0 0 Z " fill="#6A6A6A" transform="translate(249,9)"/>
<path d="M0 0 C1.09570312 0.00902344 2.19140625 0.01804688 3.3203125 0.02734375 C4.58488281 0.04474609 4.58488281 0.04474609 5.875 0.0625 C5.545 0.7225 5.215 1.3825 4.875 2.0625 C4.215 1.7325 3.555 1.4025 2.875 1.0625 C3.37 3.0425 3.37 3.0425 3.875 5.0625 C2.555 4.4025 1.235 3.7425 -0.125 3.0625 C-0.125 2.4025 -0.125 1.7425 -0.125 1.0625 C-2.10991642 1.32926204 -2.10991642 1.32926204 -4.125 2.0625 C-4.455 3.0525 -4.785 4.0425 -5.125 5.0625 C-10.75 5.3125 -10.75 5.3125 -14.125 3.0625 C-14.125 3.7225 -14.125 4.3825 -14.125 5.0625 C-19.735 4.7325 -25.345 4.4025 -31.125 4.0625 C-31.125 3.7325 -31.125 3.4025 -31.125 3.0625 C-30.07699219 2.97162109 -30.07699219 2.97162109 -29.0078125 2.87890625 C-28.09773438 2.79511719 -27.18765625 2.71132813 -26.25 2.625 C-25.34507813 2.54378906 -24.44015625 2.46257813 -23.5078125 2.37890625 C-21.11389139 2.19260715 -21.11389139 2.19260715 -19.125 1.0625 C-16.29728217 0.99267981 -13.48398608 1.06546871 -10.65625 1.125 C-6.96878952 1.03395159 -3.89287277 -0.04141354 0 0 Z " fill="#4B4B4B" transform="translate(70.125,50.9375)"/>
<path d="M0 0 C1.98 0 3.96 0 6 0 C6.33 0.66 6.66 1.32 7 2 C7.66 2.33 8.32 2.66 9 3 C10.03145371 4.30915279 11.03542166 5.64082143 12 7 C11.01 8.485 11.01 8.485 10 10 C7.525 9.01 7.525 9.01 5 8 C5 7.01 5 6.02 5 5 C4.01 5 3.02 5 2 5 C2.66 6.65 3.32 8.3 4 10 C2.68 10 1.36 10 0 10 C-1.125 3.375 -1.125 3.375 0 0 Z " fill="#363636" transform="translate(195,46)"/>
<path d="M0 0 C0.66 0.33 1.32 0.66 2 1 C2 1.66 2 2.32 2 3 C7.28 3 12.56 3 18 3 C17.67 4.65 17.34 6.3 17 8 C16.34 7.67 15.68 7.34 15 7 C13.2104531 6.90342128 11.41714466 6.87019532 9.625 6.875 C8.66851562 6.87242188 7.71203125 6.86984375 6.7265625 6.8671875 C4.05866505 6.90127908 4.05866505 6.90127908 1.7890625 7.58984375 C0 8 0 8 -2.25 6.6875 C-2.8275 6.130625 -3.405 5.57375 -4 5 C-4 4.34 -4 3.68 -4 3 C-3.34 3 -2.68 3 -2 3 C-1.67 2.34 -1.34 1.68 -1 1 C-0.67 0.67 -0.34 0.34 0 0 Z " fill="#1D1D1D" transform="translate(134,49)"/>
<path d="M0 0 C2.31 0.66 4.62 1.32 7 2 C7 2.66 7 3.32 7 4 C5.35 4 3.7 4 2 4 C2.33 4.99 2.66 5.98 3 7 C3.928125 6.938125 4.85625 6.87625 5.8125 6.8125 C9 7 9 7 10.69921875 8.51171875 C11.12847656 9.00285156 11.55773437 9.49398438 12 10 C11.15695313 10.04898437 10.31390625 10.09796875 9.4453125 10.1484375 C8.34960938 10.22320312 7.25390625 10.29796875 6.125 10.375 C4.48917969 10.47941406 4.48917969 10.47941406 2.8203125 10.5859375 C-0.13046474 10.73253491 -0.13046474 10.73253491 -2 13 C-4 10 -4 10 -4 7 C-3.01 6.34 -2.02 5.68 -1 5 C-1 3.68 -1 2.36 -1 1 C-0.67 0.67 -0.34 0.34 0 0 Z " fill="#313131" transform="translate(20,10)"/>
<path d="M0 0 C6.93 0 13.86 0 21 0 C21.66 1.98 22.32 3.96 23 6 C22.34 6 21.68 6 21 6 C20.67 4.68 20.34 3.36 20 2 C19.34 2.66 18.68 3.32 18 4 C15.41935871 4.14497985 12.95056116 4.18677545 10.375 4.125 C9.66859375 4.11597656 8.9621875 4.10695313 8.234375 4.09765625 C6.48943902 4.07407603 4.74467705 4.03820461 3 4 C2.67 4.66 2.34 5.32 2 6 C1.34 6 0.68 6 0 6 C-0.5625 4.0625 -0.5625 4.0625 -1 2 C-0.67 1.67 -0.34 1.34 0 1 C0 0.67 0 0.34 0 0 Z " fill="#575757" transform="translate(21,22)"/>
<path d="M0 0 C12.21 0 24.42 0 37 0 C37 0.99 37 1.98 37 3 C36.01 3.33 35.02 3.66 34 4 C33.01 3.34 32.02 2.68 31 2 C28.48497823 1.63303819 28.48497823 1.63303819 25.67578125 1.5859375 C24.64775391 1.54726563 23.61972656 1.50859375 22.56054688 1.46875 C21.48869141 1.4378125 20.41683594 1.406875 19.3125 1.375 C18.22904297 1.33632813 17.14558594 1.29765625 16.02929688 1.2578125 C13.35303533 1.16349491 10.67678157 1.07789995 8 1 C8 1.66 8 2.32 8 3 C5.6875 3.625 5.6875 3.625 3 4 C2.01 3.34 1.02 2.68 0 2 C0 1.34 0 0.68 0 0 Z " fill="#212121" transform="translate(208,52)"/>
<path d="M0 0 C1.71253527 0.05393368 3.4228674 0.18135927 5.12890625 0.33984375 C6.16337891 0.43330078 7.19785156 0.52675781 8.26367188 0.62304688 C9.35228516 0.72681641 10.44089844 0.83058594 11.5625 0.9375 C13.2012207 1.08735352 13.2012207 1.08735352 14.87304688 1.24023438 C17.58251057 1.48870048 20.29141348 1.74217463 23 2 C23.33 2.99 23.66 3.98 24 5 C23 6 23 6 19.9375 6.0625 C18.968125 6.041875 17.99875 6.02125 17 6 C17 5.67 17 5.34 17 5 C10.31468008 3.82712428 10.31468008 3.82712428 4 6 C4 5.01 4 4.02 4 3 C1.66924071 3.95865509 1.66924071 3.95865509 0 7 C-1 6 -1 6 -1.125 3.5 C-1 1 -1 1 0 0 Z " fill="#6A6A6A" transform="translate(163,50)"/>
<path d="M0 0 C3 1 3 1 5 3 C5.22705078 5.33837891 5.22705078 5.33837891 5.1953125 8.2265625 C5.18564453 9.7734375 5.18564453 9.7734375 5.17578125 11.3515625 C5.15902344 12.43179687 5.14226562 13.51203125 5.125 14.625 C5.11597656 15.71296875 5.10695312 16.8009375 5.09765625 17.921875 C5.07403409 20.61480152 5.04109556 23.30729255 5 26 C6.65 26.33 8.3 26.66 10 27 C9.525625 27.598125 9.05125 28.19625 8.5625 28.8125 C6.83534256 31.00382924 6.83534256 31.00382924 6 34 C4 32 4 32 3.77294922 29.20263672 C3.78865967 27.45877686 3.78865967 27.45877686 3.8046875 25.6796875 C3.81113281 24.42285156 3.81757813 23.16601562 3.82421875 21.87109375 C3.84097656 20.55238281 3.85773438 19.23367187 3.875 17.875 C3.88503017 16.53516279 3.89415596 15.19531848 3.90234375 13.85546875 C3.92597852 10.57023624 3.9618505 7.28509602 4 4 C-0.29 4 -4.58 4 -9 4 C-8.01 3.67 -7.02 3.34 -6 3 C-6 2.34 -6 1.68 -6 1 C-3 2 -3 2 0 3 C0 2.01 0 1.02 0 0 Z " fill="#393939" transform="translate(164,7)"/>
<path d="M0 0 C0.66 0 1.32 0 2 0 C2.33 0.66 2.66 1.32 3 2 C3.99 1.67 4.98 1.34 6 1 C8.33299825 0.96045766 10.66708189 0.95598268 13 1 C13 1.99 13 2.98 13 4 C9.04 4 5.08 4 1 4 C1 12.58 1 21.16 1 30 C0.34 29.67 -0.32 29.34 -1 29 C-1.02465881 25.03069011 -1.04284023 21.06140966 -1.05493164 17.09204102 C-1.05997057 15.74079614 -1.06680177 14.38955674 -1.07543945 13.03833008 C-1.08752419 11.09979566 -1.09269828 9.161222 -1.09765625 7.22265625 C-1.10289307 6.05484619 -1.10812988 4.88703613 -1.11352539 3.68383789 C-1 1 -1 1 0 0 Z M7 2 C11 3 11 3 11 3 Z " fill="#616161" transform="translate(185,7)"/>
<path d="M0 0 C2 3 2 3 1.625 5.1875 C1.41875 5.785625 1.2125 6.38375 1 7 C2.14597656 6.98839844 3.29195312 6.97679687 4.47265625 6.96484375 C6.00260252 6.95545758 7.53255058 6.94635827 9.0625 6.9375 C9.81466797 6.92912109 10.56683594 6.92074219 11.34179688 6.91210938 C16.00633118 6.89191659 20.39923173 7.22404041 25 8 C25 8.33 25 8.66 25 9 C15.43 9 5.86 9 -4 9 C-4.33 8.01 -4.66 7.02 -5 6 C-4.34 6 -3.68 6 -3 6 C-3 4.68 -3 3.36 -3 2 C-2.01 2 -1.02 2 0 2 C0 1.34 0 0.68 0 0 Z " fill="#838383" transform="translate(19,21)"/>
<path d="M0 0 C1.65 0.33 3.3 0.66 5 1 C5.33 1.99 5.66 2.98 6 4 C6.99 4.33 7.98 4.66 9 5 C8.01 5.33 7.02 5.66 6 6 C6 7.65 6 9.3 6 11 C5.01 11.495 5.01 11.495 4 12 C4 9.69 4 7.38 4 5 C3.67 5 3.34 5 3 5 C2.67 6.98 2.34 8.96 2 11 C0.68 10.67 -0.64 10.34 -2 10 C-2 7.36 -2 4.72 -2 2 C-1.34 2 -0.68 2 0 2 C0 1.34 0 0.68 0 0 Z M-1 7 C-0.67 7.99 -0.34 8.98 0 10 C0 9.01 0 8.02 0 7 C-0.33 7 -0.66 7 -1 7 Z " fill="#7A7A7A" transform="translate(51,29)"/>
<path d="M0 0 C8.58 0 17.16 0 26 0 C25.67 0.66 25.34 1.32 25 2 C23.83082031 2.06058594 22.66164063 2.12117188 21.45703125 2.18359375 C19.90884386 2.26804034 18.36066732 2.35268625 16.8125 2.4375 C16.04357422 2.47681641 15.27464844 2.51613281 14.48242188 2.55664062 C10.56748925 2.77507034 6.82879312 3.08692108 3 4 C3 3.01 3 2.02 3 1 C2.01 0.67 1.02 0.34 0 0 Z " fill="#1D1D1D" transform="translate(249,52)"/>
<path d="M0 0 C0.33 0 0.66 0 1 0 C1.01981934 0.81154541 1.03963867 1.62309082 1.06005859 2.45922852 C1.15571837 6.16062749 1.26523214 9.86149365 1.375 13.5625 C1.4059375 14.83931641 1.436875 16.11613281 1.46875 17.43164062 C1.6609691 23.59867011 1.84925311 29.18598909 4 35 C1.11559558 32.39473149 -0.36254498 30.83130183 -1 27 C-1.32728439 19.27031288 -1.05657061 11.66013695 0 4 C-0.66 4 -1.32 4 -2 4 C-1.34 2.68 -0.68 1.36 0 0 Z " fill="#454545" transform="translate(154,11)"/>
<path d="M0 0 C1.32 0.99 2.64 1.98 4 3 C3.34 3 2.68 3 2 3 C2.66 4.65 3.32 6.3 4 8 C0.36693942 10.42204038 -1.31819023 10.23302891 -5.63671875 10.1953125 C-7.58481445 10.18564453 -7.58481445 10.18564453 -9.57226562 10.17578125 C-10.94401307 10.1590706 -12.31575786 10.14214071 -13.6875 10.125 C-15.07095718 10.11496674 -16.45442127 10.10584149 -17.83789062 10.09765625 C-21.22543452 10.07404967 -24.61263072 10.04112037 -28 10 C-28 9.67 -28 9.34 -28 9 C-18.76 9 -9.52 9 0 9 C0 6.03 0 3.06 0 0 Z " fill="#959595" transform="translate(276,42)"/>
<path d="M0 0 C1.87184371 3.74368742 2.23999767 4.8400791 2.125 8.75 C2.10695313 9.54921875 2.08890625 10.3484375 2.0703125 11.171875 C2.04710938 11.77515625 2.02390625 12.3784375 2 13 C2.66 12.67 3.32 12.34 4 12 C4 10.35 4 8.7 4 7 C4.99 6.67 5.98 6.34 7 6 C8.125 8.25 8.125 8.25 9 11 C8.125 13.3125 8.125 13.3125 7 15 C4.69 15 2.38 15 0 15 C0 10.05 0 5.1 0 0 Z " fill="#474747" transform="translate(118,11)"/>
<path d="M0 0 C0.99 0 1.98 0 3 0 C3 0.66 3 1.32 3 2 C4.32 2.33 5.64 2.66 7 3 C6.67 3.66 6.34 4.32 6 5 C5.9603287 6.66619446 5.95615553 8.33391013 6 10 C5.01 10 4.02 10 3 10 C2.67 9.34 2.34 8.68 2 8 C1.01 7.67 0.02 7.34 -1 7 C-0.67 4.69 -0.34 2.38 0 0 Z " fill="#434343" transform="translate(9,46)"/>
<path d="M0 0 C4.95 0.33 9.9 0.66 15 1 C15 1.99 15 2.98 15 4 C12.19842552 4.93385816 10.34552197 5.16354595 7.4375 5.1875 C6.25994141 5.20876953 6.25994141 5.20876953 5.05859375 5.23046875 C3 5 3 5 1 3 C0.67 2.01 0.34 1.02 0 0 Z " fill="#282828" transform="translate(104,51)"/>
<path d="M0 0 C0.99 0.33 1.98 0.66 3 1 C3 4.3 3 7.6 3 11 C4.65 11 6.3 11 8 11 C7.67 11.99 7.34 12.98 7 14 C1.4368231 13.51624549 1.4368231 13.51624549 -0.375 11.375 C-1.38015148 7.55542438 -1.79923373 3.59846746 0 0 Z " fill="#303030" transform="translate(246,10)"/>
<path d="M0 0 C0.66 0 1.32 0 2 0 C2 1.98 2 3.96 2 6 C2.66 6.33 3.32 6.66 4 7 C3.01 7.33 2.02 7.66 1 8 C1.66 8.33 2.32 8.66 3 9 C3 10.32 3 11.64 3 13 C2.01 13 1.02 13 0 13 C0 12.01 0 11.02 0 10 C-0.66 10 -1.32 10 -2 10 C-2 7.69 -2 5.38 -2 3 C-1.34 3 -0.68 3 0 3 C0 2.01 0 1.02 0 0 Z " fill="#6F6F6F" transform="translate(76,35)"/>
<path d="M0 0 C0.66 0 1.32 0 2 0 C2 1.32 2 2.64 2 4 C1.34 4 0.68 4 0 4 C0 12.58 0 21.16 0 30 C-0.33 30 -0.66 30 -1 30 C-1.02465746 25.8882744 -1.04283959 21.77657722 -1.05493164 17.66479492 C-1.0599708 16.26504772 -1.06680216 14.8653058 -1.07543945 13.46557617 C-1.0875232 11.45754223 -1.09269807 9.44947043 -1.09765625 7.44140625 C-1.10289307 6.23170166 -1.10812988 5.02199707 -1.11352539 3.77563477 C-1 1 -1 1 0 0 Z " fill="#151515" transform="translate(222,11)"/>
<path d="M0 0 C0.66 0.33 1.32 0.66 2 1 C2 1.66 2 2.32 2 3 C2.66 3.33 3.32 3.66 4 4 C3.67 5.32 3.34 6.64 3 8 C0.03824877 7.38722388 -1.38058783 6.74627478 -4 5 C-4 4.34 -4 3.68 -4 3 C-3.34 3 -2.68 3 -2 3 C-1.67 2.34 -1.34 1.68 -1 1 C-0.67 0.67 -0.34 0.34 0 0 Z " fill="#353535" transform="translate(134,49)"/>
<path d="M0 0 C3.96 0 7.92 0 12 0 C12.33 1.32 12.66 2.64 13 4 C12.01 4 11.02 4 10 4 C10 3.34 10 2.68 10 2 C7.03 2.66 4.06 3.32 1 4 C0.67 2.68 0.34 1.36 0 0 Z " fill="#828282" transform="translate(22,14)"/>
<path d="M0 0 C1.32 0 2.64 0 4 0 C4.66 0.66 5.32 1.32 6 2 C6.66 1.34 7.32 0.68 8 0 C8.99 0.33 9.98 0.66 11 1 C10.34 1.66 9.68 2.32 9 3 C10.299375 3.12375 11.59875 3.2475 12.9375 3.375 C15.15234375 3.5859375 15.15234375 3.5859375 17 4 C17.33 4.66 17.66 5.32 18 6 C10.89945397 5.74319906 5.90244471 5.06612857 0 1 C0 0.67 0 0.34 0 0 Z " fill="#C5C5C5" transform="translate(28,16)"/>
<path d="M0 0 C2.31 0.66 4.62 1.32 7 2 C7 2.66 7 3.32 7 4 C5.35 4 3.7 4 2 4 C2 4.99 2 5.98 2 7 C1.01 6.67 0.02 6.34 -1 6 C-1.8125 4.0625 -1.8125 4.0625 -2 2 C-1.34 1.34 -0.68 0.68 0 0 Z " fill="#464646" transform="translate(20,10)"/>
<path d="M0 0 C2.97 0 5.94 0 9 0 C9.33 0.66 9.66 1.32 10 2 C8.35 2 6.7 2 5 2 C4.67 2.66 4.34 3.32 4 4 C3.01 4 2.02 4 1 4 C1 7.63 1 11.26 1 15 C0.67 15 0.34 15 0 15 C0 10.05 0 5.1 0 0 Z " fill="#676767" transform="translate(118,36)"/>
<path d="M0 0 C0.99 0.33 1.98 0.66 3 1 C2.67 3.97 2.34 6.94 2 10 C1.01 10 0.02 10 -1 10 C-2.25 3.375 -2.25 3.375 0 0 Z " fill="#414141" transform="translate(45,9)"/>
<path d="M0 0 C0.639375 0.2475 1.27875 0.495 1.9375 0.75 C2.2675 1.74 2.5975 2.73 2.9375 3.75 C-2.6725 3.42 -8.2825 3.09 -14.0625 2.75 C-14.0625 2.42 -14.0625 2.09 -14.0625 1.75 C-13.01449219 1.65912109 -13.01449219 1.65912109 -11.9453125 1.56640625 C-11.03523438 1.48261719 -10.12515625 1.39882813 -9.1875 1.3125 C-8.28257813 1.23128906 -7.37765625 1.15007813 -6.4453125 1.06640625 C-3.92910405 0.73228677 -2.51163743 -0.3044409 0 0 Z " fill="#686868" transform="translate(53.0625,52.25)"/>
<path d="M0 0 C0.66 0.33 1.32 0.66 2 1 C2.40729228 3.32156597 2.74438677 5.6568787 3 8 C1.35 8.33 -0.3 8.66 -2 9 C-2 6.36 -2 3.72 -2 1 C-1.34 0.67 -0.68 0.34 0 0 Z " fill="#414141" transform="translate(251,31)"/>
<path d="M0 0 C0.66 0 1.32 0 2 0 C2.66 2.97 3.32 5.94 4 9 C0.37 9 -3.26 9 -7 9 C-7 8.67 -7 8.34 -7 8 C-4.69 8 -2.38 8 0 8 C0 5.36 0 2.72 0 0 Z " fill="#737373" transform="translate(276,12)"/>
<path d="M0 0 C0.33 0 0.66 0 1 0 C1 4.95 1 9.9 1 15 C0.01 14.67 -0.98 14.34 -2 14 C-1.85923685 12.0412957 -1.7122324 10.08303907 -1.5625 8.125 C-1.48128906 7.03445312 -1.40007813 5.94390625 -1.31640625 4.8203125 C-1 2 -1 2 0 0 Z " fill="#1A1A1A" transform="translate(14,30)"/>
<path d="M0 0 C0.33 0.66 0.66 1.32 1 2 C4.99531924 4.16888759 7.62855218 4.01661577 12 3 C11.67 3.99 11.34 4.98 11 6 C9.54176788 6.0270043 8.08339325 6.04639787 6.625 6.0625 C5.81289062 6.07410156 5.00078125 6.08570313 4.1640625 6.09765625 C2 6 2 6 0 5 C0 3.35 0 1.7 0 0 Z " fill="#5B5B5B" transform="translate(172,37)"/>
<path d="M0 0 C2.97 0 5.94 0 9 0 C9 0.66 9 1.32 9 2 C10.32 2.33 11.64 2.66 13 3 C8.38 3 3.76 3 -1 3 C-0.67 2.01 -0.34 1.02 0 0 Z " fill="#5A5A5A" transform="translate(105,8)"/>
<path d="M0 0 C1.9375 0.375 1.9375 0.375 4 1 C5.231394 3.46278801 5.07159196 5.2795055 5 8 C3.35 7.67 1.7 7.34 0 7 C0 4.69 0 2.38 0 0 Z " fill="#C2C2C2" transform="translate(57,35)"/>
<path d="M0 0 C0 1.65 0 3.3 0 5 C-2.64 5 -5.28 5 -8 5 C-8 4.01 -8 3.02 -8 2 C-2.25 0 -2.25 0 0 0 Z " fill="#424242" transform="translate(41,8)"/>
<path d="M0 0 C1.32 0.66 2.64 1.32 4 2 C4 2.66 4 3.32 4 4 C4.66 4.33 5.32 4.66 6 5 C6.33 5.66 6.66 6.32 7 7 C4.07120629 6.37240135 1.63904371 5.41377341 -1 4 C-0.67 2.68 -0.34 1.36 0 0 Z " fill="#4A4A4A" transform="translate(67,33)"/>
<path d="M0 0 C-0.54723683 3.37462715 -1.0549 5.08235 -3 8 C-3.66 6.35 -4.32 4.7 -5 3 C-2.25 0 -2.25 0 0 0 Z " fill="#3E3E3E" transform="translate(152,41)"/>
<path d="M0 0 C0.66 0 1.32 0 2 0 C2 1.32 2 2.64 2 4 C2.66 4.66 3.32 5.32 4 6 C3.01 6.66 2.02 7.32 1 8 C0.34 8.66 -0.32 9.32 -1 10 C-0.979375 9.21625 -0.95875 8.4325 -0.9375 7.625 C-0.81315937 5.01885039 -0.81315937 5.01885039 -2 3 C-1.34 2.01 -0.68 1.02 0 0 Z " fill="#5E5E5E" transform="translate(62,32)"/>
<path d="M0 0 C2.97246802 2.54782974 4.41535288 5.45340883 6 9 C6 9.66 6 10.32 6 11 C5.01 10.67 4.02 10.34 3 10 C2.33984375 8.1875 2.33984375 8.1875 1.9375 6 C1.57299127 3.85944703 1.57299127 3.85944703 1 2 C0.34 1.67 -0.32 1.34 -1 1 C-0.67 0.67 -0.34 0.34 0 0 Z " fill="#5F5F5F" transform="translate(128,38)"/>
<path d="M0 0 C1.98 0 3.96 0 6 0 C5.67 0.99 5.34 1.98 5 3 C4.34 3 3.68 3 3 3 C3 3.66 3 4.32 3 5 C1.68 4.67 0.36 4.34 -1 4 C-0.67 2.68 -0.34 1.36 0 0 Z " fill="#9B9B9B" transform="translate(63,38)"/>
<path d="M0 0 C3 1 3 1 4 2 C5.32 2 6.64 2 8 2 C7.67 2.99 7.34 3.98 7 5 C4.03 4.505 4.03 4.505 1 4 C0.67 2.68 0.34 1.36 0 0 Z " fill="#393939" transform="translate(246,19)"/>
<path d="M0 0 C-0.33 1.65 -0.66 3.3 -1 5 C-5.455 4.01 -5.455 4.01 -10 3 C-10 2.67 -10 2.34 -10 2 C-6.38026598 0.68373308 -3.90432869 0 0 0 Z " fill="#262626" transform="translate(152,52)"/>
<path d="M0 0 C2.0625 0.4375 2.0625 0.4375 4 1 C4 1.66 4 2.32 4 3 C3.01 3.495 3.01 3.495 2 4 C1.34 4.99 0.68 5.98 0 7 C-1 6 -1 6 -1.125 3.5 C-1 1 -1 1 0 0 Z " fill="#404040" transform="translate(163,50)"/>
<path d="M0 0 C2.64 0 5.28 0 8 0 C7.67 0.66 7.34 1.32 7 2 C6.34 1.67 5.68 1.34 5 1 C5.33 2.32 5.66 3.64 6 5 C4.68 4.34 3.36 3.68 2 3 C2 2.34 2 1.68 2 1 C1.34 0.67 0.68 0.34 0 0 Z " fill="#282828" transform="translate(68,51)"/>
<path d="M0 0 C0.66 0 1.32 0 2 0 C2.33 2.31 2.66 4.62 3 7 C2.01 7 1.02 7 0 7 C0 4.69 0 2.38 0 0 Z " fill="#2A2A2A" transform="translate(12,49)"/>
<path d="M0 0 C0.66 0 1.32 0 2 0 C2 1.98 2 3.96 2 6 C2.66 6.33 3.32 6.66 4 7 C3.01 7.33 2.02 7.66 1 8 C0.87625 7.360625 0.7525 6.72125 0.625 6.0625 C0.315625 5.0415625 0.315625 5.0415625 0 4 C-0.66 3.67 -1.32 3.34 -2 3 C-1.34 3 -0.68 3 0 3 C0 2.01 0 1.02 0 0 Z " fill="#3A3A3A" transform="translate(76,35)"/>
<path d="M0 0 C1.65 0.33 3.3 0.66 5 1 C3.625 2.5 3.625 2.5 2 4 C1.34 4 0.68 4 0 4 C-0.33 4.99 -0.66 5.98 -1 7 C-1.625 5.1875 -1.625 5.1875 -2 3 C-1.34 2.01 -0.68 1.02 0 0 Z " fill="#494949" transform="translate(144,20)"/>
<path d="M0 0 C0.66 0 1.32 0 2 0 C2 1.32 2 2.64 2 4 C1.34 4 0.68 4 0 4 C0 6.31 0 8.62 0 11 C-0.33 11 -0.66 11 -1 11 C-1.02688151 9.35425434 -1.04634123 7.70838587 -1.0625 6.0625 C-1.07410156 5.14597656 -1.08570313 4.22945312 -1.09765625 3.28515625 C-1 1 -1 1 0 0 Z " fill="#202020" transform="translate(222,11)"/>
<path d="M0 0 C2.76223278 2.76223278 2.57856291 5.20706617 3 9 C0.74754119 6.31158141 -0.88213958 4.35358125 -2 1 C-1.34 0.67 -0.68 0.34 0 0 Z " fill="#4C4C4C" transform="translate(144,35)"/>
<path d="M0 0 C0.66 0.99 1.32 1.98 2 3 C1.67 3.99 1.34 4.98 1 6 C0.01 6.33 -0.98 6.66 -2 7 C-2.33 5.35 -2.66 3.7 -3 2 C-2.01 2 -1.02 2 0 2 C0 1.34 0 0.68 0 0 Z " fill="#A4A4A4" transform="translate(19,21)"/>
<path d="M0 0 C0.99 0.33 1.98 0.66 3 1 C3 1.99 3 2.98 3 4 C2.01 3.67 1.02 3.34 0 3 C0 2.01 0 1.02 0 0 Z " fill="#4A4A4A" transform="translate(80,60)"/>
<path d="M0 0 C0.99 0 1.98 0 3 0 C3 0.66 3 1.32 3 2 C1.68 1.67 0.36 1.34 -1 1 C-0.67 0.67 -0.34 0.34 0 0 Z " fill="#3F3F3F" transform="translate(150,18)"/>
<path d="M0 0 C0.66 0 1.32 0 2 0 C2 0.99 2 1.98 2 3 C1.34 3 0.68 3 0 3 C0 2.01 0 1.02 0 0 Z " fill="#414141" transform="translate(153,46)"/>
<path d="M0 0 C0.66 0 1.32 0 2 0 C2 0.99 2 1.98 2 3 C1.34 3 0.68 3 0 3 C0 2.01 0 1.02 0 0 Z " fill="#424242" transform="translate(10,28)"/>
<path d="M0 0 C0.99 0.495 0.99 0.495 2 1 C2 1.66 2 2.32 2 3 C1.34 3 0.68 3 0 3 C0 2.01 0 1.02 0 0 Z " fill="#262626" transform="translate(13,23)"/>
<path d="" fill="#424242" transform="translate(0,0)"/>
<path d="" fill="#434343" transform="translate(0,0)"/>
<path d="M0 0 C2 1 2 1 2 1 Z " fill="#0B0B0B" transform="translate(271,55)"/>
<path d="M0 0 C2 1 2 1 2 1 Z " fill="#363636" transform="translate(171,55)"/>
<path d="" fill="#373737" transform="translate(0,0)"/>
<path d="" fill="#393939" transform="translate(0,0)"/>
<path d="M0 0 C2 1 2 1 2 1 Z " fill="#3B3B3B" transform="translate(191,52)"/>
<path d="" fill="#434343" transform="translate(0,0)"/>
<path d="" fill="#3B3B3B" transform="translate(0,0)"/>
<path d="" fill="#424242" transform="translate(0,0)"/>
<path d="" fill="#3D3D3D" transform="translate(0,0)"/>
<path d="M0 0 C2 1 2 1 2 1 Z " fill="#535353" transform="translate(271,8)"/>
<path d="M0 0 C2 1 2 1 2 1 Z " fill="#515151" transform="translate(252,8)"/>
<path d="" fill="#434343" transform="translate(0,0)"/>
<path d="" fill="#434343" transform="translate(0,0)"/>
<path d="" fill="#3D3D3D" transform="translate(0,0)"/>
<path d="" fill="#3A3A3A" transform="translate(0,0)"/>
<path d="" fill="#292929" transform="translate(0,0)"/>
<path d="" fill="#363636" transform="translate(0,0)"/>
<path d="" fill="#303030" transform="translate(0,0)"/>
<path d="" fill="#414141" transform="translate(0,0)"/>
<path d="" fill="#4D4D4D" transform="translate(0,0)"/>
<path d="" fill="#424242" transform="translate(0,0)"/>
<path d="" fill="#434343" transform="translate(0,0)"/>
<path d="" fill="#555555" transform="translate(0,0)"/>
<path d="" fill="#585858" transform="translate(0,0)"/>
<path d="" fill="#585858" transform="translate(0,0)"/>
<path d="" fill="#2E2E2E" transform="translate(0,0)"/>
<path d="" fill="#434343" transform="translate(0,0)"/>
<path d="" fill="#454545" transform="translate(0,0)"/>
<path d="" fill="#1C1C1C" transform="translate(0,0)"/>
<path d="" fill="#434343" transform="translate(0,0)"/>
<path d="" fill="#3A3A3A" transform="translate(0,0)"/>
<path d="" fill="#333333" transform="translate(0,0)"/>
<path d="" fill="#3E3E3E" transform="translate(0,0)"/>
<path d="" fill="#474747" transform="translate(0,0)"/>
<path d="" fill="#4C4C4C" transform="translate(0,0)"/>
<path d="" fill="#4F4F4F" transform="translate(0,0)"/>
<path d="" fill="#434343" transform="translate(0,0)"/>
</svg>
